<?xml version="1.0" encoding="UTF-8" standalone="no"?>
<svg
   xmlns:dc="http://purl.org/dc/elements/1.1/"
   xmlns:cc="http://creativecommons.org/ns#"
   xmlns:rdf="http://www.w3.org/1999/02/22-rdf-syntax-ns#"
   xmlns:svg="http://www.w3.org/2000/svg"
   xmlns="http://www.w3.org/2000/svg"
   xmlns:sodipodi="http://sodipodi.sourceforge.net/DTD/sodipodi-0.dtd"
   xmlns:inkscape="http://www.inkscape.org/namespaces/inkscape"
   width="512mm"
   height="512mm"
   viewBox="0 0 512 512"
   version="1.1"
   id="svg8"
   inkscape:version="1.0.1 (0767f8302a, 2020-10-17)"
   sodipodi:docname="Pebble.svg">
  <defs
     id="defs2" />
  <sodipodi:namedview
     id="base"
     pagecolor="#ffffff"
     bordercolor="#666666"
     borderopacity="1.0"
     inkscape:pageopacity="0.0"
     inkscape:pageshadow="2"
     inkscape:zoom="0.56149745"
     inkscape:cx="814.06567"
     inkscape:cy="1121.1682"
     inkscape:document-units="mm"
     inkscape:current-layer="layer1"
     inkscape:document-rotation="0"
     showgrid="false"
     inkscape:window-width="1848"
     inkscape:window-height="1016"
     inkscape:window-x="72"
     inkscape:window-y="27"
     inkscape:window-maximized="1" />
  <metadata
     id="metadata5">
    <rdf:RDF>
      <cc:Work
         rdf:about="">
        <dc:format>image/svg+xml</dc:format>
        <dc:type
           rdf:resource="http://purl.org/dc/dcmitype/StillImage" />
        <dc:title />
      </cc:Work>
    </rdf:RDF>
  </metadata>
  <g
     inkscape:label="Layer 1"
     inkscape:groupmode="layer"
     id="layer1">
    <path
       style="fill:#000000;fill-opacity:1;stroke:none;stroke-width:0.264583px;stroke-linecap:butt;stroke-linejoin:miter;stroke-opacity:1"
       d="m 152.13357,221.87099 c 7.42382,-30.37799 29.43964,-70.68321 46.12503,-82.5512 14.97144,-5.89871 64.89199,10.48341 79.18819,16.30881 25.43898,13.91303 42.00623,25.66964 61.54031,46.79513 l -34.59202,139.64256 c -32.73805,-3.2901 -65.0298,-6.85083 -98.48988,-8.10895 z"
       id="path869"
       sodipodi:nodetypes="ccccccc" />
    <path
       style="fill:#000000;fill-opacity:1;stroke:none;stroke-width:0.264583px;stroke-linecap:butt;stroke-linejoin:miter;stroke-opacity:1"
       d="m 80.731277,354.06293 c 5.427986,3.83599 11.624159,6.57044 18.499076,8.80464 36.377827,3.3434 74.402347,-3.75039 109.699197,-22.10333 2.74832,-2.37946 4.56075,-4.81602 6.11192,-8.81744 1.09037,-32.32474 8.91409,-66.18376 -23.43433,-104.58284 -16.82535,-9.91663 -21.72036,-10.94931 -47.4171,-9.86557 -11.31491,2.93717 -22.44198,6.18953 -33.28171,12.2612 -19.464705,14.85954 -33.94068,27.5699 -50.89017,47.61183 -2.361865,5.11243 -2.180083,9.85643 -2.005431,14.76584 z"
       id="path867"
       sodipodi:nodetypes="cccccccccc" />
    <path
       style="fill:#000000;fill-opacity:1;stroke:none;stroke-width:0.264583px;stroke-linecap:butt;stroke-linejoin:miter;stroke-opacity:1"
       d="m 24.063002,371.75979 c -6.233787,-2.45613 -11.819564,-7.44284 -15.3340818,-13.99267 0.9620883,-15.75564 6.3192088,-30.19026 10.7701108,-44.34184 5.033088,-7.26308 9.989126,-12.733 15.886426,-17.07406 8.70758,-4.24566 16.773316,-7.97348 26.909601,-9.62499 9.336674,0.74631 18.097589,18.63539 24.120747,29.4517 2.722222,10.77633 4.509682,20.99328 3.538027,30.62655 -1.308168,3.96631 -2.366026,6.53612 -6.881077,10.30457 -18.212152,10.98527 -40.884393,17.05658 -59.009753,14.65074 z"
       id="path847"
       sodipodi:nodetypes="ccccccccc" />
    <path
       style="fill:#000000;fill-opacity:1;stroke:none;stroke-width:0.264583px;stroke-linecap:butt;stroke-linejoin:miter;stroke-opacity:1"
       d="m 308.51387,352.92323 c -14.24151,-9.81172 -23.44439,-50.2114 -22.94387,-84.45428 8.27761,-42.32217 45.2462,-71.9765 68.23599,-75.85762 31.50262,2.21875 82.69949,37.94617 87.99391,64.32786 -0.22,10.79172 -2.81879,19.4191 -4.22818,29.12865 l -44.85165,60.67457 c -28.38596,9.20818 -56.13192,9.11269 -84.2062,6.18082 z"
       id="path871"
       sodipodi:nodetypes="ccccccc" />
    <path
       id="path873"
       style="opacity:1;fill:#000000;fill-opacity:1;stroke:none;stroke-width:0.999999px;stroke-linecap:butt;stroke-linejoin:miter;stroke-opacity:1"
       d="M 1662.4414 1047.1113 C 1557.35 1047.707 1450.1094 1199.489 1459.4277 1310.9219 C 1501.6491 1389.2943 1690.9055 1401.4897 1788.9336 1394.7715 C 1848.5656 1383.3109 1876.0715 1353.7435 1904.1504 1323.7559 C 1905.6822 1296.7661 1904.1439 1264.6908 1898.9199 1234.9922 C 1894.424 1258.0902 1868.2606 1272.3152 1845.8691 1246.7969 C 1838.686 1231.7391 1840.1854 1189.3237 1857.3379 1179.8535 C 1869.3396 1178.2398 1882.2965 1188.1477 1890.6504 1200.4004 C 1884.7966 1181.7823 1877.0076 1165.8224 1867.041 1155.1387 C 1825.8448 1115.3153 1747.7236 1066.0168 1683.3965 1049.0645 C 1676.4447 1047.7035 1669.4475 1047.0716 1662.4414 1047.1113 z M 1737.6914 1202.2891 C 1774.5763 1203.5136 1787.719 1235.1411 1784.8613 1267.8164 C 1778.1673 1284.6568 1759.6628 1291.2373 1733.3008 1290.127 C 1723.9047 1285.684 1713.6643 1278.7747 1706.8184 1262.7773 C 1706.7125 1231.4966 1713.7255 1207.0349 1737.6914 1202.2891 z "
       transform="scale(0.26458333)" />
  </g>
</svg>
