<?xml version="1.0" encoding="UTF-8" standalone="no"?>
<svg
   xmlns:dc="http://purl.org/dc/elements/1.1/"
   xmlns:cc="http://creativecommons.org/ns#"
   xmlns:rdf="http://www.w3.org/1999/02/22-rdf-syntax-ns#"
   xmlns:svg="http://www.w3.org/2000/svg"
   xmlns="http://www.w3.org/2000/svg"
   xmlns:xlink="http://www.w3.org/1999/xlink"
   xmlns:sodipodi="http://sodipodi.sourceforge.net/DTD/sodipodi-0.dtd"
   xmlns:inkscape="http://www.inkscape.org/namespaces/inkscape"
   height="512"
   viewBox="0 0 256 256"
   width="512"
   version="1.1"
   id="svg106"
   sodipodi:docname="GIMP.svg"
   inkscape:version="1.0.1 (0767f8302a, 2020-10-17)">
  <metadata
     id="metadata112">
    <rdf:RDF>
      <cc:Work
         rdf:about="">
        <dc:format>image/svg+xml</dc:format>
        <dc:type
           rdf:resource="http://purl.org/dc/dcmitype/StillImage" />
        <dc:title />
      </cc:Work>
    </rdf:RDF>
  </metadata>
  <defs
     id="defs110">
    <radialGradient
       id="radialGradient963"
       cx="69.473236"
       cy="19.597876"
       gradientUnits="userSpaceOnUse"
       r="4.6348991">
      <stop
         offset="0"
         stop-color="#fff"
         id="stop959" />
      <stop
         offset="1"
         stop-color="#b9b9b0"
         id="stop961"
         style="stop-color:#b5b5b5;stop-opacity:1" />
    </radialGradient>
    <linearGradient
       id="linearGradient957">
      <stop
         offset="0"
         id="stop953"
         style="stop-color:#000000;stop-opacity:1" />
      <stop
         offset="1"
         stop-opacity="0"
         id="stop955" />
    </linearGradient>
    <linearGradient
       id="linearGradient951">
      <stop
         offset="0"
         stop-color="#fff"
         id="stop947"
         style="stop-color:#000000;stop-opacity:1" />
      <stop
         offset="1"
         stop-color="#fff"
         stop-opacity="0"
         id="stop949"
         style="stop-color:#000000;stop-opacity:0" />
    </linearGradient>
    <radialGradient
       inkscape:collect="always"
       xlink:href="#h"
       id="radialGradient937"
       gradientUnits="userSpaceOnUse"
       cx="69.473236"
       cy="19.597876"
       r="4.6348991" />
    <radialGradient
       inkscape:collect="always"
       xlink:href="#radialGradient963"
       id="radialGradient939"
       gradientUnits="userSpaceOnUse"
       cx="69.473236"
       cy="19.597876"
       r="4.6348991" />
    <filter
       inkscape:collect="always"
       style="color-interpolation-filters:sRGB"
       id="filter1145"
       x="-0.0020971235"
       width="1.0041942"
       y="-0.0036017141"
       height="1.0072034">
      <feGaussianBlur
         inkscape:collect="always"
         stdDeviation="0.023421872"
         id="feGaussianBlur1147" />
    </filter>
  </defs>
  <sodipodi:namedview
     pagecolor="#ffffff"
     bordercolor="#666666"
     borderopacity="1"
     objecttolerance="10"
     gridtolerance="10"
     guidetolerance="10"
     inkscape:pageopacity="0"
     inkscape:pageshadow="2"
     inkscape:window-width="1848"
     inkscape:window-height="1016"
     id="namedview108"
     showgrid="false"
     inkscape:zoom="1.6992188"
     inkscape:cx="262.52458"
     inkscape:cy="245.7181"
     inkscape:window-x="72"
     inkscape:window-y="27"
     inkscape:window-maximized="1"
     inkscape:current-layer="g104"
     inkscape:document-rotation="0" />
  <linearGradient
     id="a">
    <stop
       offset="0"
       id="stop2" />
    <stop
       offset="1"
       stop-opacity="0"
       id="stop4" />
  </linearGradient>
  <linearGradient
     id="b">
    <stop
       offset="0"
       stop-color="#fff"
       id="stop7" />
    <stop
       offset="1"
       stop-color="#fff"
       stop-opacity="0"
       id="stop9" />
  </linearGradient>
  <linearGradient
     id="c"
     gradientTransform="matrix(0.755165,0.395143,-0.395143,0.755165,-25.91245,6.532586)"
     gradientUnits="userSpaceOnUse"
     x1="13.236155"
     x2="7.7521091"
     xlink:href="#b"
     y1="37.752247"
     y2="42.282146" />
  <radialGradient
     id="d"
     cx="15.415101"
     cy="35.356506"
     gradientTransform="matrix(1.572694,0,0,1.532639,-55.36682,-21.35823)"
     gradientUnits="userSpaceOnUse"
     r="7.5791559">
    <stop
       offset="0"
       stop-color="#696969"
       id="stop13"
       style="stop-color:#161616;stop-opacity:1" />
    <stop
       offset="1"
       id="stop15" />
  </radialGradient>
  <linearGradient
     id="e"
     gradientUnits="userSpaceOnUse"
     x1="-27.012215"
     x2="-23.297619"
     y1="28.198475"
     y2="31.635975">
    <stop
       offset="0"
       stop-color="#bdbdbd"
       id="stop18" />
    <stop
       offset=".33333334"
       stop-color="#e2e2e2"
       id="stop20" />
    <stop
       offset=".66666669"
       stop-color="#a3a3a3"
       id="stop22" />
    <stop
       offset="1"
       stop-color="#ddd"
       id="stop24" />
  </linearGradient>
  <linearGradient
     id="f"
     gradientUnits="userSpaceOnUse"
     x1="-12.287321"
     x2="-21.551067"
     y1="21.117613"
     y2="13.060211">
    <stop
       offset="0"
       stop-color="#6e3d09"
       id="stop27"
       style="stop-color:#151515;stop-opacity:1" />
    <stop
       offset=".24242425"
       stop-color="#ea8113"
       id="stop29"
       style="stop-color:#262626;stop-opacity:1" />
    <stop
       offset=".62121212"
       stop-color="#5c3307"
       id="stop31"
       style="stop-color:#181818;stop-opacity:1" />
    <stop
       offset="1"
       stop-color="#e07c12"
       id="stop33"
       style="stop-color:#161616;stop-opacity:1" />
  </linearGradient>
  <linearGradient
     id="g"
     gradientUnits="userSpaceOnUse"
     x1="6.3051529"
     x2="5.9846292"
     xlink:href="#linearGradient951"
     y1="23.362427"
     y2="31.57" />
  <radialGradient
     id="h"
     cx="69.473236"
     cy="19.597876"
     gradientUnits="userSpaceOnUse"
     r="4.6348991">
    <stop
       offset="0"
       stop-color="#fff"
       id="stop37" />
    <stop
       offset="1"
       stop-color="#b9b9b0"
       id="stop39"
       style="stop-color:#b5b5b5;stop-opacity:1" />
  </radialGradient>
  <radialGradient
     id="i"
     cx="23"
     cy="33.9375"
     gradientTransform="matrix(1,0,0,0.284247,0,24.29088)"
     gradientUnits="userSpaceOnUse"
     r="18.25"
     xlink:href="#a" />
  <linearGradient
     id="j"
     gradientUnits="userSpaceOnUse"
     x1="14.96875"
     x2="39.524544"
     xlink:href="#b"
     y1="19.110678"
     y2="46.98568" />
  <radialGradient
     id="k"
     cx="6.024219"
     cy="25.271027"
     gradientTransform="matrix(0.916159,0.09318684,-0.108765,1.069309,3.253668,-3.029272)"
     gradientUnits="userSpaceOnUse"
     r="4.8310289">
    <stop
       offset="0"
       stop-color="#5b676b"
       id="stop44"
       style="stop-color:#000000;stop-opacity:1" />
    <stop
       offset="1"
       stop-color="#141718"
       id="stop46"
       style="stop-color:#161616;stop-opacity:1" />
  </radialGradient>
  <linearGradient
     id="l"
     gradientUnits="userSpaceOnUse"
     x1="26.162951"
     x2="24.328892"
     xlink:href="#linearGradient957"
     y1="30.543303"
     y2="30.985245" />
  <linearGradient
     id="m"
     gradientUnits="userSpaceOnUse"
     x1="28.513588"
     x2="17.376654"
     xlink:href="#a"
     y1="28.429325"
     y2="30.639034" />
  <radialGradient
     id="n"
     cx="18.557627"
     cy="22.300018"
     gradientTransform="matrix(1.77275,0,0,1.29668,-16.3404,-6.615959)"
     gradientUnits="userSpaceOnUse"
     r="19.2292">
    <stop
       offset="0"
       stop-color="#857c63"
       id="stop51"
       style="stop-color:#a4a4a4;stop-opacity:1" />
    <stop
       offset="1"
       stop-color="#221f19"
       id="stop53"
       style="stop-color:#000000;stop-opacity:1" />
  </radialGradient>
  <g
     transform="matrix(5.4486383,0,0,5.4486383,-0.17237983,-10.643894)"
     id="g104">
    <path
       d="m 10.374369,12.467884 c 0,0 2.874509,5.927634 9.599242,5.760407 C 34.066126,17.874738 36.53732,10.523341 36.890873,9.4626804 37.244427,8.4020202 37.785407,8.5626825 37.91048,9.5429474 42.506674,51.262247 6.0135488,33.362123 4.7175144,26.256467 11.965359,24.135147 10.197592,20.069282 10.197592,20.069282 Z"
       fill="url(#n)"
       fill-rule="evenodd"
       stroke="#2e3436"
       stroke-miterlimit="10"
       id="path58"
       style="opacity:1;fill:url(#n);stroke:#2e3436;stroke-opacity:1" />
    <path
       d="m 15.73779,30.066049 c 6.7389,1.347837 10.170691,0.09809 12.179175,-1.452776 -0.53033,-0.68501 -1.43631,-1.436311 -1.43631,-1.436311 0,0 2.353317,0.653942 3.18198,1.723573 0.82629,1.066568 0.306808,1.723707 0.09056,3.08837 -0.481411,-1.198599 -1.379981,-1.648092 -1.501634,-2.124332 -1.806268,2.496927 -6.306442,2.3932 -12.513771,0.201476 z"
       fill="url(#m)"
       fill-rule="evenodd"
       id="path60"
       style="fill:url(#m)" />
    <path
       d="m 36.96875,11.84375 c -0.561978,0.926895 -1.406492,2.033166 -2.6875,3.09375 -2.631918,2.179042 -7.050563,4.162347 -14.28125,4.34375 -4.224373,0.105049 -6.952741,-1.934149 -8.625,-3.75 L 11.25,20 c 0.136107,0.418802 0.415455,1.390498 -0.0625,2.71875 -0.514314,1.429296 -2.154514,2.891363 -4.96875,4 0.2503304,0.522033 0.4954845,1.04362 1.25,1.78125 1.0279503,1.004945 2.4570333,2.088049 4.15625,3.0625 3.398433,1.948902 7.801583,3.493212 11.90625,3.5625 4.104667,0.06929 7.857126,-1.23455 10.4375,-5 2.378744,-3.471218 3.682473,-9.347943 3,-18.28125 z"
       fill="none"
       opacity="0.185393"
       stroke="url(#j)"
       stroke-miterlimit="10"
       id="path62"
       style="stroke:url(#j)" />
    <path
       d="m 72.655224,21.837049 a 3.1819806,3.1819806 0 1 1 -6.363961,0 3.1819806,3.1819806 0 1 1 6.363961,0 z"
       fill="url(#h)"
       fill-rule="evenodd"
       stroke="#888a85"
       stroke-miterlimit="10"
       stroke-width="0.782608"
       transform="matrix(1.277778,0,0,1.277778,-75.12661,-6.507784)"
       id="path64"
       style="fill:url(#radialGradient937)" />
    <path
       d="m 10.429825,27.228739 a 4.331029,6.098796 0 1 1 -8.662058,0 4.331029,6.098796 0 1 1 8.662058,0 z"
       fill="url(#k)"
       fill-rule="evenodd"
       stroke="#000000"
       stroke-miterlimit="10"
       transform="rotate(-35.807849,3.3628927,26.344842)"
       id="path66"
       style="fill:url(#k)" />
    <path
       d="m 24.041631,21.837049 a 2.2980971,2.2980971 0 1 1 -4.596194,0 2.2980971,2.2980971 0 1 1 4.596194,0 z"
       fill="#2e3436"
       fill-rule="evenodd"
       stroke="#000000"
       stroke-miterlimit="10"
       stroke-width="1.17391"
       transform="matrix(0.851852,0,0,0.851852,-3.926759,3.395528)"
       id="path68"
       style="fill:#323232;fill-opacity:1" />
    <path
       d="m 6.09375,22.15625 c -0.7982492,0 -1.5531304,0.446171 -2.1875,1.34375 -0.6343696,0.897579 -1.09375,2.234204 -1.09375,3.71875 0,1.484546 0.4593804,2.821171 1.09375,3.71875 0.6343696,0.897579 1.3892511,1.34375 2.1875,1.34375 0.7982492,0 1.5772839,-0.476389 2.21875,-1.375 0.6414661,-0.898611 1.09375,-2.206186 1.09375,-3.6875 0,-1.481314 -0.4522838,-2.788889 -1.09375,-3.6875 -0.6414662,-0.898611 -1.4205011,-1.375 -2.21875,-1.375 z"
       fill="none"
       opacity="0.280899"
       stroke="url(#g)"
       stroke-miterlimit="10"
       transform="rotate(-36.832736,3.3664541,26.600311)"
       id="path70"
       style="stroke:url(#g)" />
    <g
       fill-rule="evenodd"
       id="g82">
      <path
         d="m 5.833631,23.251263 a 1.767767,2.1213202 0 1 1 -3.5355339,0 1.767767,2.1213202 0 1 1 3.5355339,0 z"
         fill="#ffffff"
         id="path72" />
      <path
         d="m 23.157747,20.953165 a 1.767767,1.767767 0 1 1 -3.535534,0 1.767767,1.767767 0 1 1 3.535534,0 z"
         fill="#ffffff"
         transform="matrix(0.766666,0,0,0.766666,-2.556414,5.029841)"
         id="path74" />
      <path
         d="m 72.655224,21.837049 a 3.1819806,3.1819806 0 1 1 -6.363961,0 3.1819806,3.1819806 0 1 1 6.363961,0 z"
         fill="url(#h)"
         stroke="#888a85"
         stroke-miterlimit="10"
         stroke-width="0.666666"
         transform="matrix(1.5,0,0,1.5,-82.16821,-10.91852)"
         id="path76"
         style="fill:url(#radialGradient939)" />
      <path
         d="m 24.041631,21.837049 a 2.2980971,2.2980971 0 1 1 -4.596194,0 2.2980971,2.2980971 0 1 1 4.596194,0 z"
         fill="#2e3436"
         stroke="#000000"
         stroke-miterlimit="10"
         transform="translate(1.414216,0.707108)"
         id="path78"
         style="fill:#323232;fill-opacity:1" />
      <path
         d="m 23.157747,20.953165 a 1.767767,1.767767 0 1 1 -3.535534,0 1.767767,1.767767 0 1 1 3.535534,0 z"
         fill="#ffffff"
         transform="matrix(0.9,0,0,0.9,3.022883,2.625648)"
         id="path80" />
    </g>
    <g
       transform="matrix(-0.114852,-0.389864,0.389864,-0.114852,24.71507,29.68942)"
       id="g100">
      <g
         stroke-linecap="round"
         stroke-width="2.46045"
         id="g90">
        <path
           d="m -23.364209,23.568336 3.710098,3.469175 C -11.307128,20.656664 -2.5600338,6.9381374 -2.5600338,6.9381374 -0.58371893,4.6957251 -2.6769537,3.1876548 -4.7249404,4.5402186 c 0,0 -12.9703626,10.1148664 -18.6392686,19.0281174 z"
           fill="url(#f)"
           stroke="#673907"
           id="path84"
           style="opacity:0.995;fill:url(#f);stroke:#373737;stroke-opacity:1;filter:url(#filter1145)" />
        <path
           d="m -30.449715,32.813894 2.24632,1.93382 8.492766,-7.367031 0.275061,-0.705828 1.094405,-0.01782 c -0.4375,-1.5625 -2.941514,-4.383455 -4.816514,-4.383455 l 0.08202,1.090075 -0.669991,0.380027 -6.704066,9.070207 z"
           fill="url(#e)"
           stroke="#888a85"
           id="path86"
           style="fill:url(#e)" />
        <path
           d="m -23.801371,28.376767 -4.364933,5.266471"
           fill="none"
           stroke="#ffffff"
           stroke-linejoin="round"
           id="path88" />
      </g>
      <path
         d="m -45.341208,42.769835 c 10.443958,0 18.370039,1.24373 19.870605,-6.354738 1.209249,-6.123314 -7.210534,-9.057368 -11.38287,-3.590861 -4.019277,5.265971 -8.487735,9.945599 -8.487735,9.945599 z"
         fill="url(#d)"
         id="path92"
         style="fill:url(#d)" />
      <path
         d="m 8.8749989,37.75 a 1.2499999,1.2499999 0 1 1 -2.4999997,0 1.2499999,1.2499999 0 1 1 2.4999997,0 z"
         fill="#ffffff"
         opacity="0.527778"
         transform="matrix(2.069903,0,0,2.069903,-44.75012,-41.50978)"
         id="path94" />
      <path
         d="m 8.8749989,37.75 a 1.2499999,1.2499999 0 1 1 -2.4999997,0 1.2499999,1.2499999 0 1 1 2.4999997,0 z"
         fill="#ffffff"
         transform="matrix(1.396669,0,0,1.396669,-32.05526,-25.87664)"
         id="path96"
         style="fill:#f0f0f0;fill-opacity:1" />
      <path
         d="m -38.543723,40.909242 c 0,0 3.72152,0.0943 6.116538,-1.411995 0.847351,-0.532923 1.515774,0.649985 0.493819,1.087367 -2.207394,0.944732 -6.610357,0.324628 -6.610357,0.324628 z"
         fill="url(#c)"
         opacity="0.427778"
         id="path98"
         style="fill:url(#c)" />
    </g>
    <path
       d="m 23.003067,31.736544 c 1.497372,0.143092 2.849629,-0.272213 3.411893,-0.474047 0.09822,-0.555386 0.536552,-1.621257 2.046088,-1.691468 l -0.53033,-0.928077 c 0,0 -1.966641,1.347921 -4.065864,1.745669 z"
       fill="url(#l)"
       fill-rule="evenodd"
       id="path102"
       style="display:inline;fill:url(#l)" />
  </g>
</svg>
