<?xml version="1.0" encoding="UTF-8" standalone="no"?>
<svg
   xmlns:dc="http://purl.org/dc/elements/1.1/"
   xmlns:cc="http://creativecommons.org/ns#"
   xmlns:rdf="http://www.w3.org/1999/02/22-rdf-syntax-ns#"
   xmlns:svg="http://www.w3.org/2000/svg"
   xmlns="http://www.w3.org/2000/svg"
   xmlns:sodipodi="http://sodipodi.sourceforge.net/DTD/sodipodi-0.dtd"
   xmlns:inkscape="http://www.inkscape.org/namespaces/inkscape"
   version="1.1"
   id="Layer_1"
   x="0px"
   y="0px"
   viewBox="0 0 512 512"
   style="enable-background:new 0 0 512 512;"
   xml:space="preserve"
   sodipodi:docname="mastodon.svg"
   inkscape:version="1.0.1 (0767f8302a, 2020-10-17)"><metadata
   id="metadata11"><rdf:RDF><cc:Work
       rdf:about=""><dc:format>image/svg+xml</dc:format><dc:type
         rdf:resource="http://purl.org/dc/dcmitype/StillImage" /></cc:Work></rdf:RDF></metadata><defs
   id="defs9" /><sodipodi:namedview
   pagecolor="#ffffff"
   bordercolor="#666666"
   borderopacity="1"
   objecttolerance="10"
   gridtolerance="10"
   guidetolerance="10"
   inkscape:pageopacity="0"
   inkscape:pageshadow="2"
   inkscape:window-width="1848"
   inkscape:window-height="1016"
   id="namedview7"
   showgrid="false"
   inkscape:zoom="1.3408233"
   inkscape:cx="314.38685"
   inkscape:cy="263.80294"
   inkscape:window-x="72"
   inkscape:window-y="27"
   inkscape:window-maximized="1"
   inkscape:current-layer="Layer_1" />
<g
   id="g4"
   transform="matrix(1.1246017,0,0,1.1246017,-31.621585,-31.066002)">
	<path
   d="m 465.9,178.7 c 0,-97.6 -64,-126.2 -64,-126.2 -62.8,-28.8 -229.5,-28.5 -291.7,0 0,0 -64,28.6 -64,126.2 0,116.2 -6.6,260.5 106.1,290.3 40.7,10.7 75.6,13.1 103.8,11.4 51,-2.8 79.7,-18.2 79.7,-18.2 l -1.7,-37.1 c 0,0 -36.5,11.4 -77.5,10.1 -40.6,-1.4 -83.4,-4.4 -90,-54.2 -0.6,-4.6 -0.9,-9.3 -0.9,-14 86,21 159.3,9.1 179.5,6.7 56.4,-6.7 105.5,-41.5 111.7,-73.2 9.8,-49.7 9,-121.8 9,-121.8 z M 390.4,304.5 H 343.6 V 189.8 c 0,-49.9 -64.3,-51.8 -64.3,6.9 v 62.8 h -46.5 v -62.8 c 0,-58.8 -64.3,-56.8 -64.3,-6.9 v 114.7 h -46.9 c 0,-122.6 -5.2,-148.5 18.5,-175.8 26,-29 80.2,-30.9 104.3,6.1 l 11.6,19.6 11.6,-19.6 c 24.2,-37.3 78.5,-34.9 104.3,-6.1 23.9,27.4 18.5,53.2 18.5,175.8 z"
   id="path2" />
</g>
</svg>
