<?xml version="1.0" encoding="UTF-8" standalone="no"?>
<svg
   xmlns:dc="http://purl.org/dc/elements/1.1/"
   xmlns:cc="http://creativecommons.org/ns#"
   xmlns:rdf="http://www.w3.org/1999/02/22-rdf-syntax-ns#"
   xmlns:svg="http://www.w3.org/2000/svg"
   xmlns="http://www.w3.org/2000/svg"
   xmlns:sodipodi="http://sodipodi.sourceforge.net/DTD/sodipodi-0.dtd"
   xmlns:inkscape="http://www.inkscape.org/namespaces/inkscape"
   width="512"
   height="512"
   viewBox="0 0 512 512"
   version="1.1"
   xml:space="preserve"
   style="clip-rule:evenodd;fill-rule:evenodd;stroke-linejoin:round;stroke-miterlimit:1.41421"
   id="svg40"
   sodipodi:docname="Meshroom.svg"
   inkscape:version="1.0.1 (0767f8302a, 2020-10-17)"><metadata
   id="metadata46"><rdf:RDF><cc:Work
       rdf:about=""><dc:format>image/svg+xml</dc:format><dc:type
         rdf:resource="http://purl.org/dc/dcmitype/StillImage" /><dc:title /></cc:Work></rdf:RDF></metadata><defs
   id="defs44" /><sodipodi:namedview
   pagecolor="#ffffff"
   bordercolor="#666666"
   borderopacity="1"
   objecttolerance="10"
   gridtolerance="10"
   guidetolerance="10"
   inkscape:pageopacity="0"
   inkscape:pageshadow="2"
   inkscape:window-width="1848"
   inkscape:window-height="1016"
   id="namedview42"
   showgrid="false"
   inkscape:zoom="1.6992188"
   inkscape:cx="259.50845"
   inkscape:cy="256.37906"
   inkscape:window-x="72"
   inkscape:window-y="27"
   inkscape:window-maximized="1"
   inkscape:current-layer="g38"
   inkscape:document-rotation="0" />
    <g
   id="g38"
   transform="matrix(30.912707,0,0,30.912707,9.4921593,5.7720402)">
        <path
   d="M 11.7,1.6 H 4.3 L 8,8 h 7.4 z"
   style="fill:#999999;fill-rule:nonzero;fill-opacity:1"
   id="path2" />
        <path
   d="M 0.6,8 4.3,1.6 8,8 4.3,14.4 Z"
   style="fill:#767676;fill-rule:nonzero;fill-opacity:1"
   id="path4" />
        <path
   d="M 0.6,8 H 8 l 3.7,6.4 H 4.3 Z"
   style="fill:#999999;fill-rule:nonzero;fill-opacity:1"
   id="path6" />
        <path
   d="M 11.7,1.6 8,8 11.7,14.4 15.4,8 Z"
   style="fill:#222222;fill-rule:nonzero;fill-opacity:1"
   id="path8" />
        <path
   d="M 14.1,10.2 12.2,7 l -1.1,2 1.8,3.2 z"
   style="fill:#ffffff;fill-rule:nonzero"
   id="path10" />
        <ellipse
   cx="12.5"
   cy="9.8999996"
   rx="0.2"
   ry="0.30000001"
   style="fill:#5e5e5e;fill-opacity:1"
   id="ellipse12" />
        <g
   id="g36">
            <circle
   cx="0.60000002"
   cy="8"
   r="0.60000002"
   style="fill:#ffffff"
   id="circle14" />
            <circle
   cx="8"
   cy="8"
   r="0.60000002"
   style="fill:#ffffff"
   id="circle16" />
            <circle
   cx="4.3000002"
   cy="14.4"
   r="0.60000002"
   style="fill:#ffffff"
   id="circle18" />
            <circle
   cx="11.7"
   cy="14.4"
   r="0.60000002"
   style="fill:#ffffff"
   id="circle20" />
            <circle
   cx="4.3000002"
   cy="1.6"
   r="0.60000002"
   style="fill:#ffffff"
   id="circle22" />
            <circle
   cx="11.7"
   cy="1.6"
   r="0.60000002"
   style="fill:#ffffff"
   id="circle24" />
            <circle
   cx="15.4"
   cy="8"
   r="0.60000002"
   style="fill:#ffffff"
   id="circle26" />
            <path
   d="M 8.1,8.2 H 0.3 L 4.2,1.4 H 12 Z M 1,7.8 h 6.9 l 3.5,-6 h -7 z"
   style="fill:#ffffff;fill-rule:nonzero"
   id="path28" />
            <path
   d="M 11.8,14.6 H 4.2 L 0.5,8.1 0.8,7.9 4.4,14.2 h 7.2 L 15.1,8 11.5,1.7 11.8,1.5 15.6,8 Z"
   style="fill:#ffffff;fill-rule:nonzero"
   id="path30" />
            <g
   transform="matrix(0.8654,-0.501,0.501,0.8654,-4.2828,6.4256)"
   id="g34">
                <rect
   x="9.6000004"
   y="7.5"
   width="0.40000001"
   height="7.4000001"
   style="fill:#ffffff"
   id="rect32" />
            </g>
        </g>
    </g>
</svg>
