<?xml version="1.0" encoding="UTF-8" standalone="no"?>
<!-- Generator: Adobe Illustrator 16.0.4, SVG Export Plug-In . SVG Version: 6.00 Build 0)  -->

<svg
   version="1.1"
   id="Layer_1"
   x="0px"
   y="0px"
   width="64"
   height="64"
   viewBox="0 0 64 64"
   enable-background="new 0 0 124 33"
   xml:space="preserve"
   sodipodi:docname="PayPal.svg"
   inkscape:version="1.1 (c4e8f9ed74, 2021-05-24)"
   xmlns:inkscape="http://www.inkscape.org/namespaces/inkscape"
   xmlns:sodipodi="http://sodipodi.sourceforge.net/DTD/sodipodi-0.dtd"
   xmlns="http://www.w3.org/2000/svg"
   xmlns:svg="http://www.w3.org/2000/svg"><defs
   id="defs25" /><sodipodi:namedview
   id="namedview23"
   pagecolor="#ffffff"
   bordercolor="#999999"
   borderopacity="1"
   inkscape:pageshadow="0"
   inkscape:pageopacity="0"
   inkscape:pagecheckerboard="0"
   showgrid="false"
   inkscape:zoom="9.1748516"
   inkscape:cx="32.861567"
   inkscape:cy="33.461032"
   inkscape:window-width="1920"
   inkscape:window-height="1011"
   inkscape:window-x="0"
   inkscape:window-y="0"
   inkscape:window-maximized="1"
   inkscape:current-layer="Layer_1" />







<path
   fill="#179bd7"
   d="m 54.209846,16.471422 v 0 0 c -0.05852,0.374098 -0.125396,0.756556 -0.200633,1.149463 -2.585249,13.273172 -11.429851,17.858488 -22.725945,17.858488 h -5.751499 c -1.381446,0 -2.54554,1.003168 -2.760803,2.365806 v 0 0 l -2.944717,18.675652 -0.833884,5.293803 c -0.140026,0.894492 0.549653,1.701206 1.452504,1.701206 h 10.200969 c 1.207982,0 2.23414,-0.877772 2.424324,-2.069035 l 0.100317,-0.518303 1.920649,-12.188496 0.123306,-0.668779 c 0.188094,-1.195443 1.216342,-2.073215 2.424324,-2.073215 h 1.525652 c 9.883299,0 17.620235,-4.012674 19.881544,-15.624348 0.94465,-4.850737 0.455606,-8.90103 -2.043956,-11.74961 -0.756556,-0.858963 -1.694936,-1.571631 -2.792152,-2.152632 z"
   id="path16"
   style="fill:#000000;fill-opacity:0.5;stroke-width:1" />
<path
   fill="#222d65"
   d="M 51.505471,15.393015 C 51.110474,15.278069 50.702937,15.173572 50.28495,15.079525 49.864873,14.987565 49.434347,14.906061 48.991281,14.835003 47.440549,14.584211 45.741433,14.465085 43.9211,14.465085 H 28.555904 c -0.378278,0 -0.737747,0.08569 -1.059597,0.240342 -0.708487,0.340659 -1.235151,1.011528 -1.362637,1.832872 l -3.268657,20.702889 -0.09405,0.603991 c 0.215263,-1.362638 1.379357,-2.365806 2.760803,-2.365806 h 5.751499 c 11.296094,0 20.140696,-4.587406 22.725945,-17.858488 0.07733,-0.392907 0.142115,-0.775365 0.200633,-1.149463 -0.654149,-0.34693 -1.362637,-0.6437 -2.125463,-0.896582 -0.188094,-0.0627 -0.382458,-0.123306 -0.578912,-0.181825 z"
   id="path18"
   style="fill:#000000;fill-opacity:0.75;stroke-width:1" />
<path
   fill="#253b80"
   d="m 26.13367,16.538299 c 0.127486,-0.821344 0.65415,-1.492213 1.362637,-1.830782 0.32394,-0.154655 0.681319,-0.240342 1.059597,-0.240342 H 43.9211 c 1.820333,0 3.519449,0.119126 5.070181,0.369918 0.443066,0.07106 0.873592,0.152565 1.293669,0.244522 0.417987,0.09405 0.825524,0.198544 1.220521,0.31349 0.196454,0.05852 0.390818,0.119127 0.581002,0.179735 0.762826,0.252882 1.471314,0.551742 2.125463,0.896582 C 54.981032,11.566346 54.205666,8.2266307 51.55354,5.2024959 48.629722,1.8732307 43.352638,0.44789553 36.600061,0.44789553 H 16.996478 c -1.379357,0 -2.55599,1.00316847 -2.769163,2.36789547 L 6.0619421,54.573012 c -0.160925,1.024068 0.62907,1.947819 1.661497,1.947819 H 19.826249 l 3.038764,-19.279643 z"
   id="path20"
   style="fill:#000000;fill-opacity:1;stroke-width:1" />
</svg>
