<?xml version="1.0" encoding="UTF-8" standalone="no"?>
<svg
   xmlns:dc="http://purl.org/dc/elements/1.1/"
   xmlns:cc="http://creativecommons.org/ns#"
   xmlns:rdf="http://www.w3.org/1999/02/22-rdf-syntax-ns#"
   xmlns:svg="http://www.w3.org/2000/svg"
   xmlns="http://www.w3.org/2000/svg"
   xmlns:sodipodi="http://sodipodi.sourceforge.net/DTD/sodipodi-0.dtd"
   xmlns:inkscape="http://www.inkscape.org/namespaces/inkscape"
   width="512mm"
   height="512mm"
   viewBox="0 0 512 512"
   version="1.1"
   id="svg8"
   inkscape:version="1.0.1 (3bc2e813f5, 2020-09-07)"
   sodipodi:docname="Storyboarder.svg">
  <defs
     id="defs2" />
  <sodipodi:namedview
     id="base"
     pagecolor="#ffffff"
     bordercolor="#666666"
     borderopacity="1.0"
     inkscape:pageopacity="0.0"
     inkscape:pageshadow="2"
     inkscape:zoom="0.38480952"
     inkscape:cx="957.52914"
     inkscape:cy="1047.8716"
     inkscape:document-units="mm"
     inkscape:current-layer="layer1"
     inkscape:document-rotation="0"
     showgrid="false"
     inkscape:window-width="1848"
     inkscape:window-height="1016"
     inkscape:window-x="72"
     inkscape:window-y="27"
     inkscape:window-maximized="1" />
  <metadata
     id="metadata5">
    <rdf:RDF>
      <cc:Work
         rdf:about="">
        <dc:format>image/svg+xml</dc:format>
        <dc:type
           rdf:resource="http://purl.org/dc/dcmitype/StillImage" />
        <dc:title />
      </cc:Work>
    </rdf:RDF>
  </metadata>
  <g
     inkscape:label="Layer 1"
     inkscape:groupmode="layer"
     id="layer1">
    <path
       style="opacity:1;fill:#000000;fill-opacity:1;stroke:#000000;stroke-width:0.264583px;stroke-linecap:butt;stroke-linejoin:miter;stroke-opacity:1"
       d="m 52.666517,324.52722 48.725213,87.68763 49.80756,15.55975 15.07832,-49.86354 -47.56933,-87.7173 z"
       id="path847"
       sodipodi:nodetypes="cccccc" />
    <path
       style="opacity:1;fill:#595959;fill-opacity:1;stroke:#404040;stroke-width:0.264583px;stroke-linecap:butt;stroke-linejoin:miter;stroke-opacity:1"
       d="M 52.666517,324.52722 37.337135,295.89113 c -1.549954,-6.59749 -0.32756,-10.7979 3.378575,-14.64253 l 47.157113,-25.65202 c 6.776439,-1.34873 10.437091,0.11468 14.390907,4.50937 l 16.44455,30.08781 z"
       id="path849"
       sodipodi:nodetypes="ccccccc" />
    <path
       style="fill:#000000;fill-opacity:1;stroke:#000000;stroke-width:0.264583px;stroke-linecap:butt;stroke-linejoin:miter;stroke-opacity:1"
       d="m 199.02625,264.93441 v 101.02344 c 1.58561,5.81185 6.02159,9.48653 12.06768,11.10078 H 439.5761 c 6.3895,-1.70489 9.57669,-4.44812 10.88747,-11.76126 V 264.47916 Z"
       id="path851"
       sodipodi:nodetypes="ccccccc" />
    <path
       style="fill:#595959;fill-opacity:1;stroke:#404040;stroke-width:0.264583px;stroke-linecap:butt;stroke-linejoin:miter;stroke-opacity:1"
       d="m 199.02625,264.93441 v -15.91685 c 2.09773,-7.06972 5.00783,-9.85396 11.57439,-11.54908 h 228.7299 c 6.83491,1.96416 9.42752,4.93766 11.18282,11.55001 l -0.0498,15.46067 -251.43732,0.45525"
       id="path853"
       sodipodi:nodetypes="ccccccc" />
    <path
       style="fill:#040404;fill-opacity:1;stroke:none;stroke-width:0.264583px;stroke-linecap:butt;stroke-linejoin:miter;stroke-opacity:1"
       d="m 200.16119,400.6533 v 38.32304 c 0.31695,3.68948 2.23039,5.58622 5.72626,6.37627 h 64.02239 c 4.08389,-0.83924 5.14617,-1.97977 6.29513,-5.92531 v -39.06592 c -0.86492,-3.43145 -2.71826,-5.09761 -6.09772,-5.86486 h -64.94983 c -3.15381,1.12194 -4.40097,2.90288 -4.99623,6.15678 z"
       id="path855"
       sodipodi:nodetypes="ccccccccc" />
    <path
       style="fill:#040404;fill-opacity:1;stroke:none;stroke-width:0.264583px;stroke-linecap:butt;stroke-linejoin:miter;stroke-opacity:1"
       d="m 287.19926,400.96244 v 38.32304 c 0.31694,3.68948 2.23039,5.58622 5.72626,6.37627 h 64.02239 c 4.08389,-0.83924 5.14617,-1.97977 6.29512,-5.92531 v -39.06592 c -0.86491,-3.43145 -2.71825,-5.09761 -6.09772,-5.86486 h -64.94982 c -3.15381,1.12194 -4.40097,2.90288 -4.99623,6.15678 z"
       id="path855-3"
       sodipodi:nodetypes="ccccccccc" />
    <path
       style="fill:#040404;fill-opacity:1;stroke:none;stroke-width:0.264583px;stroke-linecap:butt;stroke-linejoin:miter;stroke-opacity:1"
       d="m 374.62964,401.1531 v 38.32305 c 0.31695,3.68947 2.23039,5.58621 5.72626,6.37627 h 64.02239 c 4.08389,-0.83925 5.14617,-1.97978 6.29513,-5.92532 v -39.06592 c -0.86492,-3.43145 -2.71826,-5.09761 -6.09772,-5.86486 h -64.94983 c -3.15381,1.12194 -4.40097,2.90288 -4.99623,6.15678 z"
       id="path855-6"
       sodipodi:nodetypes="ccccccccc" />
  </g>
</svg>
