<?xml version="1.0" encoding="UTF-8" standalone="no"?>
<!-- Created with Inkscape (http://www.inkscape.org/) -->

<svg
   xmlns:osb="http://www.openswatchbook.org/uri/2009/osb"
   xmlns:dc="http://purl.org/dc/elements/1.1/"
   xmlns:cc="http://creativecommons.org/ns#"
   xmlns:rdf="http://www.w3.org/1999/02/22-rdf-syntax-ns#"
   xmlns:svg="http://www.w3.org/2000/svg"
   xmlns="http://www.w3.org/2000/svg"
   xmlns:sodipodi="http://sodipodi.sourceforge.net/DTD/sodipodi-0.dtd"
   xmlns:inkscape="http://www.inkscape.org/namespaces/inkscape"
   width="1000"
   height="1000"
   viewBox="0 0 264.58333 264.58333"
   version="1.1"
   id="svg8"
   inkscape:version="0.92.4 (f8dce91, 2019-08-02)"
   sodipodi:docname="Grass.svg"
   inkscape:export-filename="/home/marco/Scrivania/Grass Icon.png"
   inkscape:export-xdpi="96"
   inkscape:export-ydpi="96">
  <defs
     id="defs2">
    <linearGradient
       id="linearGradient5992"
       osb:paint="solid">
      <stop
         style="stop-color:#000000;stop-opacity:1;"
         offset="0"
         id="stop5990" />
    </linearGradient>
  </defs>
  <sodipodi:namedview
     id="base"
     pagecolor="#ffffff"
     bordercolor="#666666"
     borderopacity="1.0"
     inkscape:pageopacity="0.0"
     inkscape:pageshadow="2"
     inkscape:zoom="1.4"
     inkscape:cx="225.70845"
     inkscape:cy="410.44697"
     inkscape:document-units="px"
     inkscape:current-layer="layer1"
     showgrid="false"
     units="px"
     inkscape:window-width="1853"
     inkscape:window-height="1025"
     inkscape:window-x="67"
     inkscape:window-y="27"
     inkscape:window-maximized="1" />
  <metadata
     id="metadata5">
    <rdf:RDF>
      <cc:Work
         rdf:about="">
        <dc:format>image/svg+xml</dc:format>
        <dc:type
           rdf:resource="http://purl.org/dc/dcmitype/StillImage" />
        <dc:title />
      </cc:Work>
    </rdf:RDF>
  </metadata>
  <g
     inkscape:label="Livello 1"
     inkscape:groupmode="layer"
     id="layer1"
     transform="translate(0,-32.41665)">
    <path
       style="fill:#141414;fill-opacity:1;stroke:none;stroke-width:0.26458332px;stroke-linecap:butt;stroke-linejoin:miter;stroke-opacity:1"
       d="m 1.889881,201.561 c -7.0442076,30.62814 21.645232,37.3409 46.88991,37.44074 23.711507,0.0938 141.085309,0.29896 164.444439,0.38277 25.69769,0.0922 55.23021,-7.18597 50.41416,-38.39048 -17.67679,-35.7743 -18.22223,-60.56712 -6.2366,-103.565475 0,0 -21.46787,8.151545 -44.41221,32.742185 -16.24723,17.413 -25.51339,48.14472 -25.51339,48.14472 l -26.45833,-55.18453 c 0,0 14.09308,49.4577 -2.64583,72.57143 0,0 -17.16423,-21.39653 -24.37368,-48.38432 -8.34571,-31.24125 15.22526,-72.988636 15.22526,-72.988636 0,0 -33.1289,16.518587 -52.009527,47.282426 -17.229251,28.07311 -23.508727,55.19172 -23.508727,55.19172 0,0 -7.069356,-20.83456 -23.812499,-47.62499 C 35.20673,105.67953 10.583333,88.357126 10.583333,88.357126 c 0,0 18.862511,67.838374 -8.693452,113.203874 z"
       id="path6004"
       inkscape:connector-curvature="0"
       sodipodi:nodetypes="cssccsccsscscscc" />
  </g>
  <g
     inkscape:groupmode="layer"
     id="layer2"
     inkscape:label="Livello 2"
     style="display:none;opacity:0.18157181">
    <circle
       style="fill:#000000;fill-opacity:1;stroke:#00ff00;stroke-width:0.2985318;stroke-opacity:1"
       id="path6026"
       cx="131.91368"
       cy="132.29166"
       r="131.14076" />
  </g>
</svg>
