<?xml version="1.0" encoding="UTF-8" standalone="no"?>
<!-- Created with Inkscape (http://www.inkscape.org/) -->

<svg
   xmlns:osb="http://www.openswatchbook.org/uri/2009/osb"
   xmlns:dc="http://purl.org/dc/elements/1.1/"
   xmlns:cc="http://creativecommons.org/ns#"
   xmlns:rdf="http://www.w3.org/1999/02/22-rdf-syntax-ns#"
   xmlns:svg="http://www.w3.org/2000/svg"
   xmlns="http://www.w3.org/2000/svg"
   xmlns:sodipodi="http://sodipodi.sourceforge.net/DTD/sodipodi-0.dtd"
   xmlns:inkscape="http://www.inkscape.org/namespaces/inkscape"
   width="1000"
   height="1000"
   viewBox="0 0 264.58333 264.58333"
   version="1.1"
   id="svg8"
   inkscape:version="0.92.4 (f8dce91, 2019-08-02)"
   sodipodi:docname="Textures.svg"
   inkscape:export-filename="/home/marco/Scrivania/Textures Icon.png"
   inkscape:export-xdpi="96"
   inkscape:export-ydpi="96">
  <defs
     id="defs2">
    <linearGradient
       id="linearGradient5992"
       osb:paint="solid">
      <stop
         style="stop-color:#000000;stop-opacity:1;"
         offset="0"
         id="stop5990" />
    </linearGradient>
  </defs>
  <sodipodi:namedview
     id="base"
     pagecolor="#ffffff"
     bordercolor="#666666"
     borderopacity="1.0"
     inkscape:pageopacity="0.0"
     inkscape:pageshadow="2"
     inkscape:zoom="1.4"
     inkscape:cx="238.57322"
     inkscape:cy="593.36156"
     inkscape:document-units="px"
     inkscape:current-layer="layer1"
     showgrid="false"
     units="px"
     inkscape:window-width="1853"
     inkscape:window-height="1025"
     inkscape:window-x="67"
     inkscape:window-y="27"
     inkscape:window-maximized="1" />
  <metadata
     id="metadata5">
    <rdf:RDF>
      <cc:Work
         rdf:about="">
        <dc:format>image/svg+xml</dc:format>
        <dc:type
           rdf:resource="http://purl.org/dc/dcmitype/StillImage" />
        <dc:title />
      </cc:Work>
    </rdf:RDF>
  </metadata>
  <g
     inkscape:label="Livello 1"
     inkscape:groupmode="layer"
     id="layer1"
     transform="translate(0,-32.41665)">
    <path
       style="fill:#0a020f;fill-opacity:1;stroke:none;stroke-width:0.26212472;stroke-opacity:1"
       d="M 132.48072,33.739714 A 130.96875,130.96875 0 0 0 77.340845,46.156337 v 51.9908 H 186.68423 V 45.623896 A 130.96875,130.96875 0 0 0 132.48072,33.739714 Z m 59.82076,14.725573 v 49.68185 H 245.0976 A 130.96875,130.96875 0 0 0 192.30148,48.465287 Z M 71.724107,48.878953 A 130.96875,130.96875 0 0 0 19.857199,98.147137 H 71.724107 Z M 16.653339,103.76439 A 130.96875,130.96875 0 0 0 1.5120524,164.70838 130.96875,130.96875 0 0 0 15.387256,223.03114 H 71.724107 V 103.76439 Z m 60.687506,0 V 223.03114 H 186.68423 V 103.76439 Z m 114.960635,0 v 119.26675 h 57.38432 a 130.96875,130.96875 0 0 0 13.7636,-58.32276 130.96875,130.96875 0 0 0 -15.13002,-60.94399 z M 18.250149,228.64788 a 130.96875,130.96875 0 0 0 53.473958,51.9181 v -51.9181 z m 59.090696,0 v 54.68782 a 130.96875,130.96875 0 0 0 55.139875,12.34136 130.96875,130.96875 0 0 0 54.20351,-11.96763 v -55.06155 z m 114.960635,0 v 52.33842 a 130.96875,130.96875 0 0 0 54.29924,-52.33842 z"
       id="path12"
       inkscape:connector-curvature="0" />
  </g>
  <g
     inkscape:groupmode="layer"
     id="layer2"
     inkscape:label="Livello 2"
     style="display:none;opacity:0.18157181">
    <circle
       style="fill:#000000;fill-opacity:1;stroke:#00ff00;stroke-width:0.2985318;stroke-opacity:1"
       id="path6026"
       cx="131.91368"
       cy="132.29166"
       r="131.14076" />
  </g>
</svg>
