<?xml version="1.0" encoding="UTF-8" standalone="no"?>
<svg
   xmlns:dc="http://purl.org/dc/elements/1.1/"
   xmlns:cc="http://creativecommons.org/ns#"
   xmlns:rdf="http://www.w3.org/1999/02/22-rdf-syntax-ns#"
   xmlns:svg="http://www.w3.org/2000/svg"
   xmlns="http://www.w3.org/2000/svg"
   xmlns:sodipodi="http://sodipodi.sourceforge.net/DTD/sodipodi-0.dtd"
   xmlns:inkscape="http://www.inkscape.org/namespaces/inkscape"
   width="1024"
   height="1024"
   viewBox="0 0 270.93333 270.93334"
   version="1.1"
   id="svg8"
   inkscape:version="1.0 (b51213c273, 2020-08-10)"
   sodipodi:docname="ArchDec 2.svg">
  <defs
     id="defs2" />
  <sodipodi:namedview
     id="base"
     pagecolor="#ffffff"
     bordercolor="#666666"
     borderopacity="1.0"
     inkscape:pageopacity="0.0"
     inkscape:pageshadow="2"
     inkscape:zoom="0.80920972"
     inkscape:cx="544.49442"
     inkscape:cy="511.81705"
     inkscape:document-units="mm"
     inkscape:current-layer="layer1"
     inkscape:document-rotation="0"
     showgrid="false"
     units="px"
     inkscape:window-width="1848"
     inkscape:window-height="1016"
     inkscape:window-x="72"
     inkscape:window-y="27"
     inkscape:window-maximized="1" />
  <metadata
     id="metadata5">
    <rdf:RDF>
      <cc:Work
         rdf:about="">
        <dc:format>image/svg+xml</dc:format>
        <dc:type
           rdf:resource="http://purl.org/dc/dcmitype/StillImage" />
        <dc:title />
      </cc:Work>
    </rdf:RDF>
  </metadata>
  <g
     inkscape:label="Layer 1"
     inkscape:groupmode="layer"
     id="layer1">
    <path
       id="path35"
       style="fill:#000000;fill-opacity:1;stroke:#000000;stroke-width:0.275584px;stroke-linecap:butt;stroke-linejoin:miter;stroke-opacity:1"
       d="M 175.70239,2.5986439 C 160.33544,2.5465884 145.17104,4.3998513 129.35851,7.0074504 107.35848,10.635415 83.845212,17.126663 62.991741,25.544247 c -0.03954,4.184873 1.967879,6.744066 5.193574,7.976866 l -23.80088,169.490107 4.329685,3.06965 6.868607,-2.66649 12.722082,-86.87465 c 0,0 12.170246,6.31525 20.291491,8.91074 9.728108,3.10901 29.87933,6.7771 29.87933,6.7771 l 10.62561,42.24618 3.93461,2.40597 5.47885,-1.68203 -9.39141,-38.44829 23.3353,10.0938 -22.65979,117.59366 6.32121,4.4594 7.5861,-3.94591 27.88782,-139.64414 15.89936,-5.96005 13.5343,4.95998 10.35809,93.34602 7.06883,2.75477 4.54984,-3.03035 L 206.8014,46.447188 C 217.6327,39.760755 230.42308,36.792941 229.54839,20.917987 228.44902,10.417856 215.66765,5.9955588 193.88556,3.603557 187.75934,2.9308064 181.71554,2.619014 175.70239,2.5986439 Z M 142.23184,18.073335 c 17.32807,-1.77593 35.12199,-3.07747 52.25389,0.522188 8.27365,1.738413 11.25358,3.459165 15.7637,7.295156 -13.97916,7.987312 -29.71169,15.054582 -45.96349,22.095075 0.073,6.328132 2.14733,7.990391 5.00858,8.479884 l -4.84089,25.86854 c -14.65145,-3.949166 -30.69716,-5.84549 -49.04648,-2.42592 L 102.39458,26.131809 c 0,0 22.48457,-6.28002 39.83726,-8.058474 z M 92.080864,29.412452 105.44903,81.632605 72.608428,88.047648 80.404285,33.181682 Z m 101.026466,23.432395 4.31076,39.001047 -18.04682,-5.75908 5.95109,-30.008876 z"
       sodipodi:nodetypes="ssccccccscccccccccccccccccssssccccccscccccccccc" />
  </g>
</svg>
