<?xml version="1.0" encoding="UTF-8" standalone="no"?>
<!-- Created with Inkscape (http://www.inkscape.org/) -->

<svg
   xmlns:osb="http://www.openswatchbook.org/uri/2009/osb"
   xmlns:dc="http://purl.org/dc/elements/1.1/"
   xmlns:cc="http://creativecommons.org/ns#"
   xmlns:rdf="http://www.w3.org/1999/02/22-rdf-syntax-ns#"
   xmlns:svg="http://www.w3.org/2000/svg"
   xmlns="http://www.w3.org/2000/svg"
   xmlns:sodipodi="http://sodipodi.sourceforge.net/DTD/sodipodi-0.dtd"
   xmlns:inkscape="http://www.inkscape.org/namespaces/inkscape"
   width="1000"
   height="1000"
   viewBox="0 0 264.58333 264.58333"
   version="1.1"
   id="svg8"
   inkscape:version="0.92.4 (f8dce91, 2019-08-02)"
   sodipodi:docname="Materials.svg"
   inkscape:export-filename="/home/marco/Scrivania/Materials Icon.png"
   inkscape:export-xdpi="96"
   inkscape:export-ydpi="96">
  <defs
     id="defs2">
    <linearGradient
       id="linearGradient5992"
       osb:paint="solid">
      <stop
         style="stop-color:#000000;stop-opacity:1;"
         offset="0"
         id="stop5990" />
    </linearGradient>
  </defs>
  <sodipodi:namedview
     id="base"
     pagecolor="#ffffff"
     bordercolor="#666666"
     borderopacity="1.0"
     inkscape:pageopacity="0.0"
     inkscape:pageshadow="2"
     inkscape:zoom="0.7"
     inkscape:cx="441.20476"
     inkscape:cy="481.37197"
     inkscape:document-units="px"
     inkscape:current-layer="layer1"
     showgrid="false"
     units="px"
     inkscape:window-width="1853"
     inkscape:window-height="1025"
     inkscape:window-x="67"
     inkscape:window-y="27"
     inkscape:window-maximized="1" />
  <metadata
     id="metadata5">
    <rdf:RDF>
      <cc:Work
         rdf:about="">
        <dc:format>image/svg+xml</dc:format>
        <dc:type
           rdf:resource="http://purl.org/dc/dcmitype/StillImage" />
        <dc:title />
      </cc:Work>
    </rdf:RDF>
  </metadata>
  <g
     inkscape:label="Livello 1"
     inkscape:groupmode="layer"
     id="layer1"
     transform="translate(0,-32.41665)">
    <path
       id="path817"
       transform="matrix(0.26458333,0,0,0.26458333,0,32.41665)"
       style="fill:#000000;fill-opacity:1;stroke:none;stroke-width:1.04061973;stroke-opacity:1"
       d="M 499.28516,5.734375 C 368.38738,5.7344532 242.85085,57.73343 150.29214,150.29214 57.73343,242.85085 5.7344532,368.38738 5.734375,499.28516 c 7.96e-5,130.89778 51.999057,256.43431 144.557765,348.99302 92.55871,92.55871 218.09524,144.55768 348.99302,144.55776 130.89778,-8e-5 256.43431,-51.99906 348.99302,-144.55776 C 940.83688,755.71947 992.83586,630.18294 992.83594,499.28516 992.83586,368.38738 940.83689,242.85085 848.27818,150.29214 755.71947,57.733432 630.18294,5.7344546 499.28516,5.734375 Z m 31.7055,128.231015 c 22.63546,-67.663599 190.27905,-31.61922 282.09611,84.92915 81.42715,103.35988 81.37264,239.49384 11.67778,250.97449 C 754.27525,481.48054 745.80731,430.16296 669.77148,329.67551 595.33009,231.29523 504.2014,214.04583 530.99066,133.96539 Z"
       inkscape:connector-curvature="0"
       sodipodi:nodetypes="cscscscscsssss" />
  </g>
  <g
     inkscape:groupmode="layer"
     id="layer2"
     inkscape:label="Livello 2"
     style="display:none;opacity:0.18157181">
    <circle
       style="fill:#000000;fill-opacity:1;stroke:#00ff00;stroke-width:0.2985318;stroke-opacity:1"
       id="path6026"
       cx="131.91368"
       cy="132.29166"
       r="131.14076" />
  </g>
</svg>
