<?xml version="1.0" encoding="UTF-8" standalone="no"?>
<svg
   xmlns:dc="http://purl.org/dc/elements/1.1/"
   xmlns:cc="http://creativecommons.org/ns#"
   xmlns:rdf="http://www.w3.org/1999/02/22-rdf-syntax-ns#"
   xmlns:svg="http://www.w3.org/2000/svg"
   xmlns="http://www.w3.org/2000/svg"
   xmlns:sodipodi="http://sodipodi.sourceforge.net/DTD/sodipodi-0.dtd"
   xmlns:inkscape="http://www.inkscape.org/namespaces/inkscape"
   width="1024"
   height="280"
   viewBox="0 0 270.93334 74.08333"
   version="1.1"
   id="svg8"
   inkscape:version="1.0.1 (0767f8302a, 2020-10-17)"
   sodipodi:docname="title.svg">
  <defs
     id="defs2" />
  <sodipodi:namedview
     id="base"
     pagecolor="#ffffff"
     bordercolor="#666666"
     borderopacity="1.0"
     inkscape:pageopacity="0.0"
     inkscape:pageshadow="2"
     inkscape:zoom="1.1804551"
     inkscape:cx="518.77192"
     inkscape:cy="268.76342"
     inkscape:document-units="mm"
     inkscape:current-layer="layer1"
     inkscape:document-rotation="0"
     showgrid="false"
     units="px"
     inkscape:window-width="1848"
     inkscape:window-height="1016"
     inkscape:window-x="72"
     inkscape:window-y="27"
     inkscape:window-maximized="1" />
  <metadata
     id="metadata5">
    <rdf:RDF>
      <cc:Work
         rdf:about="">
        <dc:format>image/svg+xml</dc:format>
        <dc:type
           rdf:resource="http://purl.org/dc/dcmitype/StillImage" />
        <dc:title></dc:title>
      </cc:Work>
    </rdf:RDF>
  </metadata>
  <g
     inkscape:label="Layer 1"
     inkscape:groupmode="layer"
     id="layer1">
    <path
       id="path865"
       style="opacity:1;fill:#000000;fill-opacity:1;stroke:none;stroke-width:0.309037px;stroke-linecap:butt;stroke-linejoin:miter;stroke-opacity:1"
       d="m 19.880489,3.7284333 c -2.670387,-0.04948 -4.5632,0.422403 -6.962385,1.11422 C 8.6755631,6.6184853 5.461665,9.6327269 3.8087551,13.603129 1.3632578,21.242643 2.3932908,23.62228 2.1386279,36.356579 2.1077519,43.79704 2.8939677,53.719201 3.391676,57.669268 c 0.6788328,3.765548 0.4863816,9.362566 2.5743018,11.15913 3.1330812,2.523089 6.9312562,1.302008 7.8683722,0.453899 2.55737,-2.35976 2.468689,-4.881561 2.877304,-7.088535 0.460215,-7.450553 0.222797,-12.339156 0.511842,-21.622933 0.493817,-1.351334 0.1186,-2.321448 2.969049,-2.965425 3.291954,-0.357219 10.021562,-0.254295 15.471766,-5.184216 3.671184,-3.860049 5.142834,-8.00434 3.873828,-15.381835 C 37.831381,11.421717 37.078891,7.9995049 28.126102,4.9325893 24.504572,4.1207643 21.957455,3.7669173 19.880489,3.7284333 Z m 1.905528,12.5860127 c 0.764766,0.0049 1.5566,0.248218 2.357009,0.841399 1.000683,0.741605 1.442805,2.08939 1.407568,3.278088 -0.06365,2.147255 -0.890329,3.164366 -2.375119,3.740433 -1.07542,0.417242 -2.614549,0.349177 -3.459766,0.05675 -2.123555,-0.734727 -2.667489,-2.193252 -2.635263,-3.70965 0.03441,-1.619307 1.486032,-3.210944 2.979309,-3.838215 0.552644,-0.232149 1.13144,-0.372624 1.726262,-0.368792 z" />
    <path
       id="path840"
       style="opacity:1;fill:#000000;fill-opacity:1;stroke:none;stroke-width:0.309037px;stroke-linecap:butt;stroke-linejoin:miter;stroke-opacity:1"
       d="m 66.018746,24.318625 c -3.027862,-0.01975 -6.176667,0.596923 -8.807554,2.043748 -4.823829,2.510362 -7.421932,5.49238 -9.373116,13.927186 -1.100763,5.82227 -1.481113,10.606076 -0.365172,15.232746 1.560104,4.577848 3.019194,7.82488 7.904585,11.201987 5.745184,4.031292 12.540824,5.026125 21.743049,3.714479 5.037599,-1.194669 6.627793,-3.041474 7.248484,-5.294068 0.620694,-2.252595 0.552994,-3.737728 -1.938722,-4.531135 -2.750683,-0.704957 -8.121226,1.196932 -12.863664,0.717668 -3.200286,-0.472596 -4.735769,-0.617276 -6.172292,-2.221809 -1.16462,-1.592851 -1.378503,-2.943785 0.48106,-3.883483 2.302557,-0.661274 6.349715,0.213375 10.256768,-0.52814 3.301114,-0.584931 6.966098,-1.728123 9.105122,-5.641737 2.009724,-4.212777 1.79769,-11.749737 -1.021874,-15.988436 -2.856129,-4.106063 -5.347674,-6.066183 -9.651367,-7.640216 -1.908254,-0.69314 -4.190307,-1.093435 -6.545307,-1.10879 z m 1.932686,11.17724 c 0.51484,-0.0044 1.017964,0.08543 1.463701,0.296962 1.583039,0.75129 2.709451,2.636522 2.910501,4.377222 0.164253,1.422107 -0.698578,2.344175 -1.69548,2.518166 -1.116438,0.194859 -2.055345,-0.04967 -3.039665,-0.04769 -0.984323,0.0021 -2.013766,0.250383 -3.008283,0.08571 -1.219102,-0.201859 -2.127822,-0.575575 -1.973733,-2.662425 0.118699,-1.607555 1.476062,-3.09126 2.87851,-3.885899 0.715452,-0.405383 1.606386,-0.674684 2.464449,-0.682054 z" />
    <path
       id="path842"
       style="opacity:1;fill:#000000;fill-opacity:1;stroke:none;stroke-width:0.309037px;stroke-linecap:butt;stroke-linejoin:miter;stroke-opacity:1"
       d="m 104.52343,5.1589343 c -0.60614,0.01683 -1.23375,0.100807 -1.9339,0.222723 h -6.2e-4 c -1.71034,0.690301 -3.539306,1.19186 -4.288492,5.9000707 -0.421986,5.355584 0.441057,16.180853 -0.01996,23.934674 -0.329764,7.387637 -0.833089,14.072104 -0.347065,20.511121 0.833122,4.9186 1.8144,7.846502 4.825077,10.777666 3.32126,2.200179 6.13843,2.850127 10.33885,3.95169 3.98687,0.579328 9.95117,0.989218 13.40267,-1.240373 3.6288,-1.978294 5.06841,-3.518362 7.15434,-7.903381 1.75739,-3.862408 1.65495,-9.848059 0.9108,-13.621768 -1.20628,-3.810342 -2.96688,-6.881172 -5.7208,-8.430312 -4.9641,-2.819327 -7.75489,-3.633887 -11.07701,-3.096406 -4.12853,0.38765 -5.40601,-0.654334 -6.1572,-4.216062 -0.40303,-5.472485 -0.36249,-16.145454 -0.69051,-20.563633 -0.47961,-3.5277351 -1.57383,-4.7409727 -3.30887,-5.6175937 -1.127,-0.47846 -2.07711,-0.636477 -3.08735,-0.608416 z m 13.07008,43.4281447 c 2.33577,0.04347 4.51954,1.436907 4.609,4.499146 0.0703,2.408717 -1.83124,4.423849 -4.59028,4.433957 -2.73004,0.01009 -4.93236,-1.785992 -4.87518,-4.397139 0.0577,-2.637899 2.01344,-4.588856 4.85646,-4.535964 z" />
    <path
       style="opacity:1;fill:#000000;fill-opacity:1;stroke:none;stroke-width:0.309037px;stroke-linecap:butt;stroke-linejoin:miter;stroke-opacity:1"
       d="m 202.40198,12.108929 c -0.77792,5.365217 -0.47648,15.34696 -0.5102,23.453467 0.12353,8.180933 -0.22213,19.580052 0.0978,25.250682 0.49323,4.221484 1.00321,6.627508 2.89022,8.35226 1.66844,1.415958 4.24035,2.136619 6.97649,0.789647 2.89031,-1.788174 3.40665,-4.377724 3.95683,-8.480668 0.1487,-4.216049 0.22797,-9.070784 0.0246,-15.45051 -0.034,-6.51695 -0.63067,-15.87736 -0.43077,-23.675553 -0.50719,-5.824287 -0.61306,-8.183997 -0.97124,-10.913252 -0.57837,-3.1059991 -1.55246,-4.8383307 -3.3158,-5.7032247 -1.78328,-0.541709 -2.73471,-0.549312 -4.66115,-0.05372 -1.76815,0.998482 -3.21617,1.7274826 -4.05668,6.4308637 z"
       id="path844"
       sodipodi:nodetypes="cccccccccccc" />
    <path
       id="path842-3"
       style="opacity:1;fill:#000000;fill-opacity:1;stroke:none;stroke-width:0.309037px;stroke-linecap:butt;stroke-linejoin:miter;stroke-opacity:1"
       d="m 155.79723,5.1600643 c -0.60614,0.01683 -1.23375,0.100806 -1.93389,0.222722 h -6.2e-4 c -1.71033,0.690303 -3.5393,1.19186 -4.2885,5.9000727 -0.42198,5.355583 0.44105,16.180852 -0.02,23.934673 -0.32976,7.387637 -0.83308,14.072104 -0.34705,20.511122 0.83311,4.918599 1.8144,7.846501 4.82507,10.777663 3.32126,2.200188 6.13844,2.850128 10.33887,3.951694 3.98685,0.579326 9.95116,0.989216 13.40266,-1.240372 3.62879,-1.978299 5.06841,-3.518362 7.15433,-7.903384 1.7574,-3.862407 1.65496,-9.848058 0.91082,-13.621769 -1.2063,-3.810341 -2.9669,-6.88117 -5.72081,-8.430312 -4.96412,-2.819326 -7.7549,-3.633885 -11.07702,-3.096405 -4.12853,0.38765 -5.40602,-0.654334 -6.1572,-4.216063 -0.40301,-5.472485 -0.36248,-16.145453 -0.6905,-20.563631 -0.47963,-3.5277341 -1.57383,-4.7409737 -3.30887,-5.6175927 -1.127,-0.478461 -2.07712,-0.636478 -3.08735,-0.608418 z m 13.07011,43.4281447 c 2.33575,0.04347 4.51951,1.436907 4.60899,4.499146 0.0703,2.408719 -1.83125,4.423849 -4.59029,4.433957 -2.73004,0.01009 -4.93236,-1.785992 -4.87519,-4.397139 0.0577,-2.637899 2.01346,-4.588855 4.85649,-4.535964 z" />
    <path
       id="path840-6"
       style="opacity:1;fill:#000000;fill-opacity:1;stroke:none;stroke-width:0.309037px;stroke-linecap:butt;stroke-linejoin:miter;stroke-opacity:1"
       d="m 250.29543,24.277087 c -3.02787,-0.01975 -6.17668,0.596925 -8.80755,2.043749 -4.82384,2.510363 -7.42194,5.492381 -9.37314,13.927188 -1.10075,5.822269 -1.4811,10.606075 -0.36516,15.232744 1.56011,4.577848 3.01919,7.824881 7.90458,11.201988 5.74519,4.03129 12.54082,5.026131 21.74306,3.714479 5.0376,-1.19467 6.62779,-3.041474 7.24848,-5.29407 0.6207,-2.252596 0.553,-3.737728 -1.93872,-4.531134 -2.75069,-0.704956 -8.12122,1.196931 -12.86367,0.717668 -3.20028,-0.472595 -4.73576,-0.617278 -6.17229,-2.221808 -1.16463,-1.592851 -1.37849,-2.943786 0.48106,-3.883484 2.30256,-0.661273 6.34972,0.213375 10.25677,-0.52814 3.30111,-0.584929 6.9661,-1.728122 9.10512,-5.641735 2.00973,-4.212777 1.79769,-11.749737 -1.02187,-15.988438 -2.85612,-4.106061 -5.34767,-6.066182 -9.65137,-7.640216 -1.90826,-0.693139 -4.1903,-1.093433 -6.5453,-1.108791 z m 1.93269,11.177241 c 0.51483,-0.0044 1.01796,0.08543 1.46369,0.296964 1.58304,0.75129 2.70945,2.636521 2.91051,4.377221 0.16425,1.422109 -0.69858,2.344176 -1.69548,2.518167 -1.11645,0.194859 -2.05536,-0.04966 -3.03967,-0.04769 -0.98433,0.0023 -2.01377,0.250382 -3.00829,0.08571 -1.2191,-0.201861 -2.12782,-0.575575 -1.97373,-2.662425 0.11869,-1.607555 1.47606,-3.091259 2.87851,-3.885899 0.71545,-0.405383 1.60638,-0.674683 2.46446,-0.682053 z" />
  </g>
</svg>
