<?xml version="1.0" encoding="UTF-8" standalone="no"?>
<svg
   xmlns:dc="http://purl.org/dc/elements/1.1/"
   xmlns:cc="http://creativecommons.org/ns#"
   xmlns:rdf="http://www.w3.org/1999/02/22-rdf-syntax-ns#"
   xmlns:svg="http://www.w3.org/2000/svg"
   xmlns="http://www.w3.org/2000/svg"
   xmlns:sodipodi="http://sodipodi.sourceforge.net/DTD/sodipodi-0.dtd"
   xmlns:inkscape="http://www.inkscape.org/namespaces/inkscape"
   width="512"
   height="512"
   viewBox="0 0 512 512"
   version="1.1"
   xml:space="preserve"
   style="clip-rule:evenodd;fill-rule:evenodd;stroke-linejoin:round;stroke-miterlimit:2"
   id="svg53"
   sodipodi:docname="Blender.svg"
   inkscape:version="1.0.1 (3bc2e813f5, 2020-09-07)"><metadata
   id="metadata59"><rdf:RDF><cc:Work
       rdf:about=""><dc:format>image/svg+xml</dc:format><dc:type
         rdf:resource="http://purl.org/dc/dcmitype/StillImage" /><dc:title></dc:title></cc:Work></rdf:RDF></metadata><defs
   id="defs57" /><sodipodi:namedview
   pagecolor="#ffffff"
   bordercolor="#666666"
   borderopacity="1"
   objecttolerance="10"
   gridtolerance="10"
   guidetolerance="10"
   inkscape:pageopacity="0"
   inkscape:pageshadow="2"
   inkscape:window-width="1848"
   inkscape:window-height="1016"
   id="namedview55"
   showgrid="false"
   inkscape:zoom="1.3374798"
   inkscape:cx="233.10415"
   inkscape:cy="278.67657"
   inkscape:window-x="72"
   inkscape:window-y="27"
   inkscape:window-maximized="1"
   inkscape:current-layer="blender_logo_no_socket"
   inkscape:document-rotation="0" />
    <g
   transform="translate(-7.78614)"
   id="g51"
   style="display:inline">
        <g
   id="blender_logo_no_socket"
   transform="matrix(1,0,0,0.835201,7.78614,-42.9907)"
   style="display:inline">
            
            <g
   transform="matrix(16.677551,0,0,19.968295,-764.96901,8632.3907)"
   id="g48"
   style="display:inline;fill:#000000;fill-opacity:1">
                
                
                <g
   id="g888"
   transform="matrix(0.19841075,0,0,0.19841075,36.577374,-342.08451)"
   style="display:inline;fill:#000000;fill-opacity:1"><g
     transform="matrix(2.66418,0,0,2.66418,-520.324,532.513)"
     id="g10"
     style="fill:#000000;fill-opacity:1">
                    <path
   d="m 243.13,-333.715 c 0.106,-1.891 1.032,-3.557 2.429,-4.738 1.37,-1.16 3.214,-1.869 5.226,-1.869 2.01,0 3.854,0.709 5.225,1.869 1.396,1.181 2.322,2.847 2.429,4.736 0.106,1.943 -0.675,3.748 -2.045,5.086 -1.397,1.361 -3.384,2.215 -5.609,2.215 -2.225,0 -4.216,-0.854 -5.612,-2.215 -1.371,-1.338 -2.15,-3.143 -2.043,-5.084 z"
   style="fill:#000000;fill-opacity:1;fill-rule:nonzero"
   id="path8" />
                </g><g
     transform="matrix(2.66418,0,0,2.66418,-520.324,532.513)"
     id="g14"
     style="fill:#000000;fill-opacity:1">
                    <path
   d="m 230.94,-329.894 c 0.013,0.74 0.249,2.178 0.603,3.301 0.744,2.377 2.006,4.576 3.762,6.514 1.802,1.992 4.021,3.592 6.584,4.728 2.694,1.193 5.613,1.801 8.645,1.796 3.027,-0.004 5.946,-0.624 8.64,-1.826 2.563,-1.147 4.78,-2.754 6.579,-4.747 1.755,-1.946 3.015,-4.149 3.761,-6.526 0.375,-1.201 0.612,-2.42 0.707,-3.643 0.093,-1.205 0.054,-2.412 -0.117,-3.618 -0.334,-2.35 -1.147,-4.555 -2.399,-6.565 -1.145,-1.847 -2.621,-3.464 -4.376,-4.825 l 0.004,-0.003 -17.711,-13.599 c -0.016,-0.012 -0.029,-0.025 -0.046,-0.036 -1.162,-0.892 -3.116,-0.889 -4.394,0.005 -1.292,0.904 -1.44,2.399 -0.29,3.342 l -0.005,0.005 7.387,6.007 -22.515,0.024 h -0.03 c -1.861,0.002 -3.65,1.223 -4.004,2.766 -0.364,1.572 0.9,2.876 2.835,2.883 l -0.003,0.007 11.412,-0.022 -20.364,15.631 c -0.026,0.019 -0.054,0.039 -0.078,0.058 -1.921,1.471 -2.542,3.917 -1.332,5.465 1.228,1.574 3.839,1.577 5.78,0.009 l 11.114,-9.096 c 0,0 -0.162,1.228 -0.149,1.965 z m 28.559,4.112 c -2.29,2.333 -5.496,3.656 -8.965,3.663 -3.474,0.006 -6.68,-1.305 -8.97,-3.634 -1.119,-1.135 -1.941,-2.441 -2.448,-3.832 -0.497,-1.367 -0.69,-2.818 -0.562,-4.282 0.121,-1.431 0.547,-2.796 1.227,-4.031 0.668,-1.214 1.588,-2.311 2.724,-3.239 2.226,-1.814 5.06,-2.796 8.024,-2.8 2.967,-0.004 5.799,0.969 8.027,2.777 1.134,0.924 2.053,2.017 2.721,3.229 0.683,1.234 1.106,2.594 1.232,4.029 0.126,1.462 -0.067,2.911 -0.564,4.279 -0.508,1.395 -1.327,2.701 -2.446,3.841 z"
   style="fill:#000000;fill-opacity:1;fill-rule:nonzero"
   id="path12" />
                </g></g>
                
                
                
                
                
                
                
                
            </g>
        </g>
    </g>
</svg>
