<?xml version="1.0" encoding="UTF-8" standalone="no"?>
<svg
   xmlns:dc="http://purl.org/dc/elements/1.1/"
   xmlns:cc="http://creativecommons.org/ns#"
   xmlns:rdf="http://www.w3.org/1999/02/22-rdf-syntax-ns#"
   xmlns:svg="http://www.w3.org/2000/svg"
   xmlns="http://www.w3.org/2000/svg"
   xmlns:xlink="http://www.w3.org/1999/xlink"
   xmlns:sodipodi="http://sodipodi.sourceforge.net/DTD/sodipodi-0.dtd"
   xmlns:inkscape="http://www.inkscape.org/namespaces/inkscape"
   version="1.1"
   width="512"
   height="512"
   id="svg2985"
   enable-background="new"
   sodipodi:docname="Krita.svg"
   inkscape:version="1.0.1 (0767f8302a, 2020-10-17)">
  <sodipodi:namedview
     pagecolor="#ffffff"
     bordercolor="#666666"
     borderopacity="1"
     objecttolerance="10"
     gridtolerance="10"
     guidetolerance="10"
     inkscape:pageopacity="0"
     inkscape:pageshadow="2"
     inkscape:window-width="1848"
     inkscape:window-height="1016"
     id="namedview23"
     showgrid="false"
     inkscape:zoom="1.4241688"
     inkscape:cx="190.53144"
     inkscape:cy="241.07756"
     inkscape:window-x="72"
     inkscape:window-y="27"
     inkscape:window-maximized="1"
     inkscape:current-layer="svg2985"
     inkscape:document-rotation="0" />
  <title
     id="title462">Krita icon - 2018</title>
  <defs
     id="defs2987">
    <linearGradient
       id="linearGradient890">
      <stop
         style="stop-color:#000000;stop-opacity:1"
         offset="0"
         id="stop886" />
      <stop
         style="stop-color:#333333;stop-opacity:1"
         offset="1"
         id="stop888" />
    </linearGradient>
    <linearGradient
       id="linearGradient884">
      <stop
         style="stop-color:#000000;stop-opacity:1"
         offset="0"
         id="stop880" />
      <stop
         style="stop-color:#333333;stop-opacity:1"
         offset="1"
         id="stop882" />
    </linearGradient>
    <linearGradient
       id="linearGradient1373">
      <stop
         style="stop-color:#343434;stop-opacity:1"
         offset="0"
         id="stop1369" />
      <stop
         style="stop-color:#4d4d4d;stop-opacity:1"
         offset="1"
         id="stop1371" />
    </linearGradient>
    <linearGradient
       id="linearGradient4663-8-4">
      <stop
         id="stop4665-6-3"
         style="stop-color:#5596ea;stop-opacity:1"
         offset="0" />
      <stop
         id="stop4667-8-0"
         style="stop-color:#5596ea;stop-opacity:0"
         offset="1" />
    </linearGradient>
    <linearGradient
       xlink:href="#linearGradient890"
       id="linearGradient1403"
       gradientUnits="userSpaceOnUse"
       gradientTransform="rotate(-5.8887665,1223.2651,99.834013)"
       x1="1142.5884"
       y1="62.713318"
       x2="1280.8954"
       y2="200.87404" />
    <linearGradient
       xlink:href="#linearGradient1373"
       id="linearGradient1405"
       gradientUnits="userSpaceOnUse"
       x1="1327.5938"
       y1="230.86234"
       x2="1324.9103"
       y2="89.862335"
       gradientTransform="matrix(0.0111212,0.99993816,0.99993816,-0.0111212,1077.8896,-1093.5223)" />
    <linearGradient
       inkscape:collect="always"
       xlink:href="#linearGradient884"
       id="linearGradient878"
       x1="1178.364"
       y1="233.87766"
       x2="1339.2592"
       y2="233.87766"
       gradientUnits="userSpaceOnUse" />
  </defs>
  <metadata
     id="metadata2990">
    <rdf:RDF>
      <cc:Work
         rdf:about="">
        <dc:format>image/svg+xml</dc:format>
        <dc:type
           rdf:resource="http://purl.org/dc/dcmitype/StillImage" />
        <dc:title>Krita icon - 2018</dc:title>
        <cc:license
           rdf:resource="http://creativecommons.org/licenses/by-sa/4.0/" />
        <dc:creator>
          <cc:Agent>
            <dc:title>Wolthera van Hövell tot Westerflier and Timothée Giet</dc:title>
          </cc:Agent>
        </dc:creator>
        <dc:description>Based on Krita icon by Timothée Giet, 2013</dc:description>
      </cc:Work>
      <cc:License
         rdf:about="http://creativecommons.org/licenses/by-sa/4.0/">
        <cc:permits
           rdf:resource="http://creativecommons.org/ns#Reproduction" />
        <cc:permits
           rdf:resource="http://creativecommons.org/ns#Distribution" />
        <cc:requires
           rdf:resource="http://creativecommons.org/ns#Notice" />
        <cc:requires
           rdf:resource="http://creativecommons.org/ns#Attribution" />
        <cc:permits
           rdf:resource="http://creativecommons.org/ns#DerivativeWorks" />
        <cc:requires
           rdf:resource="http://creativecommons.org/ns#ShareAlike" />
      </cc:License>
    </rdf:RDF>
  </metadata>
  <g
     id="layer1"
     transform="matrix(0.55904623,0,0,0.55904623,-10.273498,-35.773056)">
    <circle
       cy="532"
       cx="512"
       id="path35"
       style="opacity:1;fill:#060606;fill-opacity:1;stroke:none;stroke-width:2.22599;stroke-linecap:butt;stroke-linejoin:round;stroke-miterlimit:4;stroke-dasharray:none;stroke-opacity:1"
       r="406.5" />
  </g>
  <ellipse
     style="fill:#878787;stroke-width:1.03605;fill-opacity:1"
     id="path40"
     cx="275.53415"
     cy="250.4425"
     rx="227.19135"
     ry="226.83025" />
  <g
     id="g890"
     transform="matrix(0.56312962,0,0,0.56312962,-14.374734,-32.538194)">
    <g
       id="g1401"
       transform="matrix(3.50294,0,0,3.50294,-3949.2328,-128.64558)"
       style="display:inline">
      <path
         id="path1393"
         d="m 1287.8724,191.77055 c -18.2961,17.07187 -53.4954,-10.00757 -68.3526,-27.01475 -15.2811,-17.49248 -72.3403,-76.489933 -76.5109,-80.316254 -4.1704,-3.826182 -7.4918,-8.551341 -3.8041,-13.252566 3.839,-4.578442 9.1479,-2.303721 13.7523,0.987377 4.6047,3.291218 74.1071,46.947333 94.3766,58.289713 19.707,11.02772 53.4675,39.8812 40.5387,61.30648 z"
         style="display:inline;opacity:1;fill:url(#linearGradient1403);fill-opacity:1;stroke:none;stroke-width:44.8001;stroke-linecap:butt;stroke-linejoin:miter;stroke-miterlimit:4;stroke-dasharray:none;stroke-dashoffset:0;stroke-opacity:1" />
      <path
         id="path1397"
         d="m 1317.223,208.61842 c -71.4065,63.70087 -129.8099,2.65141 -138.859,-18.49677 5.3512,36.70726 30.086,69.55591 67.4525,82.19764 28.2209,9.54743 73.2537,9.32583 93.4427,-27.04736 z"
         style="display:inline;opacity:1;fill:url(#linearGradient878);fill-opacity:1.0;stroke:none;stroke-width:44.8;stroke-linecap:butt;stroke-linejoin:miter;stroke-miterlimit:4;stroke-dasharray:none;stroke-dashoffset:0;stroke-opacity:1" />
      <path
         style="opacity:1;fill:#6e6e6e;fill-opacity:1;stroke:none;stroke-width:44.8;stroke-linecap:butt;stroke-linejoin:miter;stroke-miterlimit:4;stroke-dasharray:none;stroke-dashoffset:0;stroke-opacity:1"
         d="m 1316.9277,214.61304 c -5.8329,2.67141 -5.2021,4.60226 -10.3812,3.76933 -3.5721,-0.5745 -34.5172,-24.03135 -34.5172,-24.03135 -1.5685,-3.76412 0.313,-8.93876 3.8473,-13.03432 3.278,-4.30338 7.953,-7.21221 11.9598,-6.45429 0,0 29.3379,25.43836 30.6372,28.81501 1.8838,4.89578 -0.1357,4.67702 -1.5459,10.93562 z"
         id="path1395" />
      <path
         id="path1399"
         d="m 1318.529,266.50191 c 23.0515,-13.0388 29.7607,-35.75218 20.6586,-52.37039 -7.0732,-12.91387 -18.687,-15.35542 -26.7086,-9.1112 -7.9576,6.19442 -8.6591,13.57562 -6.2854,20.90644 4.8408,14.95155 24.3098,25.15463 12.3354,40.57515 z"
         style="opacity:1;fill:#282828;fill-opacity:1;stroke:none;stroke-width:44.8;stroke-linecap:butt;stroke-linejoin:miter;stroke-miterlimit:4;stroke-dasharray:none;stroke-dashoffset:0;stroke-opacity:1" />
    </g>
    <path
       id="path1451"
       d="m 220.07031,230.48633 a 406,406 0 0 0 -58.70703,77.63281 c 59.98899,58.76455 124.37705,122.50851 150.86524,151.05274 43.44948,46.82193 134.02285,115.22298 200.07226,107.3496 26.08233,18.34373 85.18115,59.44269 104.9375,69.1875 -0.3872,9.44375 1.50322,19.01979 4.90039,28.52735 18.5219,51.84164 87.76386,85.51928 47.45899,140.77148 C 748.93794,756.92985 770.03942,676.69584 736.42188,619.4668 715.43027,583.73179 684.88983,572.00044 659.4668,580.54297 644.24165,563.32376 583.67874,513.03234 561.38086,494.67578 547.16253,430.73673 460.9356,364.78349 406.00781,336.17773 371.41659,318.163 292.71201,272.83459 220.07031,230.48633 Z"
       style="display:inline;opacity:1;fill:#000000;fill-opacity:0.47451004;stroke:none;stroke-width:156.932;stroke-linecap:butt;stroke-linejoin:miter;stroke-miterlimit:4;stroke-dasharray:none;stroke-dashoffset:0;stroke-opacity:1" />
  </g>
</svg>
