<?xml version="1.0" encoding="UTF-8" standalone="no"?>
<svg
   xmlns:dc="http://purl.org/dc/elements/1.1/"
   xmlns:cc="http://creativecommons.org/ns#"
   xmlns:rdf="http://www.w3.org/1999/02/22-rdf-syntax-ns#"
   xmlns:svg="http://www.w3.org/2000/svg"
   xmlns="http://www.w3.org/2000/svg"
   xmlns:sodipodi="http://sodipodi.sourceforge.net/DTD/sodipodi-0.dtd"
   xmlns:inkscape="http://www.inkscape.org/namespaces/inkscape"
   width="512"
   height="512"
   version="1"
   id="svg8"
   sodipodi:docname="LMMS.svg"
   inkscape:version="1.0.1 (3bc2e813f5, 2020-09-07)">
  <metadata
     id="metadata14">
    <rdf:RDF>
      <cc:Work
         rdf:about="">
        <dc:format>image/svg+xml</dc:format>
        <dc:type
           rdf:resource="http://purl.org/dc/dcmitype/StillImage" />
        <dc:title></dc:title>
      </cc:Work>
    </rdf:RDF>
  </metadata>
  <defs
     id="defs12" />
  <sodipodi:namedview
     pagecolor="#ffffff"
     bordercolor="#666666"
     borderopacity="1"
     objecttolerance="10"
     gridtolerance="10"
     guidetolerance="10"
     inkscape:pageopacity="0"
     inkscape:pageshadow="2"
     inkscape:window-width="1848"
     inkscape:window-height="1016"
     id="namedview10"
     showgrid="false"
     inkscape:zoom="1.2015291"
     inkscape:cx="279.39685"
     inkscape:cy="285.04002"
     inkscape:window-x="72"
     inkscape:window-y="27"
     inkscape:window-maximized="1"
     inkscape:current-layer="svg8" />
  <path
     fill="#25c65f"
     d="M 8.9504523,436.97248 9.1919717,246.88027 8.9504523,151.47396 91.762673,104.12998 256.91026,8.9734438 422.05168,104.13824 504.37466,151.47396 V 436.9828 l -82.57071,47.58137 -82.57069,-47.58137 0.24355,-94.92533 82.32918,-47.82289 V 199.0677 l -82.32914,-47.34397 -82.57071,-47.58343 -82.5707,47.58343 -82.812222,47.34397 v 95.16688 l 82.570702,47.58343 v 95.16686 l -82.570702,47.56072 z"
     id="path2"
     style="fill:#000000;fill-opacity:1;stroke-width:20.6426" />
  <path
     fill="#ffffff"
     opacity="0.2"
     d="M 256.91026,8.9651858 91.762673,104.11553 8.9504523,151.48428 8.9917377,172.08567 91.762673,124.75202 256.91026,29.607861 422.05168,124.75202 504.37466,172.12696 V 151.48428 L 422.05168,104.11553 Z M 9.1981644,260.62003 8.956645,436.9704 H 8.997926 L 9.1981603,267.51468 Z m 82.3291816,33.58564 v 20.64267 l 82.570704,47.58137 v -20.64268 z m 330.282804,0 -82.32298,47.82908 -0.24766,94.93565 0.0411,0.0411 0.2064,-74.33429 82.32299,-47.82907 z"
     id="path4"
     style="stroke-width:20.6426" />
  <path
     opacity="0.2"
     d="m 256.91026,104.11553 -82.5707,47.61439 -82.818406,47.33365 v 20.64269 l 82.812216,-47.33365 82.5707,-47.6144 82.57071,47.6144 82.32298,47.33365 v -20.64269 l -82.32918,-47.33365 -82.57069,-47.61439 z m -247.9185223,67.97014 -0.041281,0.0411 0.2419116,88.49721 V 246.87573 L 8.990685,172.08732 Z m 0,264.88681 -0.040246,20.64268 82.5706943,47.58136 82.570704,-47.57518 V 436.97867 L 91.522186,484.56003 8.9927698,436.97867 Z m 495.3829223,0 -82.57071,47.58137 -82.52941,-47.54009 -0.0411,20.6014 82.57047,47.58136 82.57071,-47.57518 v -20.64267 z"
     id="path6"
     style="stroke-width:20.6426" />
</svg>
