<?xml version="1.0" encoding="UTF-8" standalone="no"?>
<svg
   xmlns:dc="http://purl.org/dc/elements/1.1/"
   xmlns:cc="http://creativecommons.org/ns#"
   xmlns:rdf="http://www.w3.org/1999/02/22-rdf-syntax-ns#"
   xmlns:svg="http://www.w3.org/2000/svg"
   xmlns="http://www.w3.org/2000/svg"
   xmlns:sodipodi="http://sodipodi.sourceforge.net/DTD/sodipodi-0.dtd"
   xmlns:inkscape="http://www.inkscape.org/namespaces/inkscape"
   version="1.1"
   x="0px"
   y="0px"
   width="512"
   height="512"
   viewBox="0 0 512.00001 512.00003"
   enable-background="new 0 0 495.723 556.746"
   xml:space="preserve"
   id="svg18"
   sodipodi:docname="PureRef.svg"
   inkscape:version="1.0.1 (0767f8302a, 2020-10-17)"><metadata
   id="metadata24"><rdf:RDF><cc:Work
       rdf:about=""><dc:format>image/svg+xml</dc:format><dc:type
         rdf:resource="http://purl.org/dc/dcmitype/StillImage" /><dc:title /></cc:Work></rdf:RDF></metadata><defs
   id="defs22" /><sodipodi:namedview
   pagecolor="#ffffff"
   bordercolor="#666666"
   borderopacity="1"
   objecttolerance="10"
   gridtolerance="10"
   guidetolerance="10"
   inkscape:pageopacity="0"
   inkscape:pageshadow="2"
   inkscape:window-width="1848"
   inkscape:window-height="1016"
   id="namedview20"
   showgrid="false"
   inkscape:zoom="1.705718"
   inkscape:cx="263.98439"
   inkscape:cy="214.31797"
   inkscape:window-x="72"
   inkscape:window-y="27"
   inkscape:window-maximized="1"
   inkscape:current-layer="Original_Logo"
   inkscape:document-rotation="0" />
<g
   id="Original_Logo"
   transform="matrix(0.91712374,0,0,0.91712374,30.383609,0)">
	
		<rect
   x="-523.48102"
   y="-468.27399"
   display="none"
   fill-rule="evenodd"
   clip-rule="evenodd"
   fill="#202020"
   width="1508.924"
   height="1511.86"
   id="rect2" />
	<rect
   x="-512.58698"
   y="-457.35901"
   display="none"
   fill-rule="evenodd"
   clip-rule="evenodd"
   width="1489.531"
   height="1492.4301"
   id="rect4" />
	<path
   fill-rule="evenodd"
   clip-rule="evenodd"
   fill="#ffffff"
   d="M 418.903,377.506 C 449.701,337.879 468.049,288.097 468.049,234.024 468.05,104.776 363.272,0 234.024,0 104.777,0 0,104.776 0,234.024 c 0,0.663 0.02,1.322 0.025,1.984 H 0.022 v 320.737 h 137.671 v -109.38 c 29.379,13.287 61.991,20.684 96.331,20.684 24.981,0 49.042,-3.93 71.616,-11.179 l 85.378,99.875 104.704,-89.39 z M 234.025,321.508 c -48.561,0 -87.926,-39.366 -87.926,-87.925 0,-48.56 39.366,-87.926 87.926,-87.926 48.56,0 87.926,39.366 87.926,87.926 0,48.559 -39.366,87.925 -87.926,87.925 z"
   id="path6"
   style="fill:#9f9f9f;fill-opacity:1" />
	<path
   fill-rule="evenodd"
   clip-rule="evenodd"
   fill="#202020"
   d="m 234.026,31.911 c -111.683,0 -202.22,90.536 -202.22,202.219 0,0.288 0.01,0.574 0.011,0.862 H 31.806 V 524.94 h 72.455 V 389.212 c 35.119,29.416 80.37,47.135 129.765,47.135 111.684,0 202.217,-90.534 202.217,-202.217 0,-111.684 -90.533,-202.219 -202.217,-202.219 z m -0.501,328.218 c -69.313,0 -125.5,-56.188 -125.5,-125.5 0,-69.314 56.187,-125.5 125.5,-125.5 69.314,0 125.5,56.186 125.5,125.5 -10e-4,69.312 -56.186,125.5 -125.5,125.5 z"
   id="path8"
   style="fill:#030303;fill-opacity:1" />
</g>
<g
   id="Original_Logo_copy"
   display="none">
	
		<rect
   x="-512.58698"
   y="-457.35901"
   display="inline"
   fill-rule="evenodd"
   clip-rule="evenodd"
   fill="#ffffff"
   width="1489.531"
   height="1492.4301"
   id="rect11" />
	<path
   display="inline"
   fill-rule="evenodd"
   clip-rule="evenodd"
   fill="#202020"
   d="M 418.903,377.506 C 449.701,337.879 468.049,288.097 468.049,234.024 468.05,104.776 363.272,0 234.024,0 104.777,0 0,104.776 0,234.024 c 0,0.663 0.02,1.322 0.025,1.984 H 0.022 v 320.737 h 137.671 v -109.38 c 29.379,13.287 61.991,20.684 96.331,20.684 24.981,0 49.042,-3.93 71.616,-11.179 l 85.378,99.875 104.704,-89.39 z M 234.025,321.508 c -48.561,0 -87.926,-39.366 -87.926,-87.925 0,-48.56 39.366,-87.926 87.926,-87.926 48.56,0 87.926,39.366 87.926,87.926 0,48.559 -39.366,87.925 -87.926,87.925 z"
   id="path13" />
	<path
   display="inline"
   fill-rule="evenodd"
   clip-rule="evenodd"
   fill="#ffffff"
   d="m 234.026,31.911 c -111.683,0 -202.22,90.536 -202.22,202.219 0,0.288 0.01,0.574 0.011,0.862 H 31.806 V 524.94 h 72.455 V 389.212 c 35.119,29.416 80.37,47.135 129.765,47.135 111.684,0 202.217,-90.534 202.217,-202.217 0,-111.684 -90.533,-202.219 -202.217,-202.219 z m -0.501,328.218 c -69.313,0 -125.5,-56.188 -125.5,-125.5 0,-69.314 56.187,-125.5 125.5,-125.5 69.314,0 125.5,56.186 125.5,125.5 -10e-4,69.312 -56.186,125.5 -125.5,125.5 z"
   id="path15" />
</g>
</svg>
